<?xml version="1.0" encoding="UTF-8" standalone="no"?>
<!-- Created with Inkscape (http://www.inkscape.org/) -->
<svg xmlns:inkscape="http://www.inkscape.org/namespaces/inkscape" xmlns:rdf="http://www.w3.org/1999/02/22-rdf-syntax-ns#" xmlns="http://www.w3.org/2000/svg" xmlns:xlink="http://www.w3.org/1999/xlink" xmlns:ns1="http://sozi.baierouge.fr" xmlns:cc="http://creativecommons.org/ns#" xmlns:sodipodi="http://sodipodi.sourceforge.net/DTD/sodipodi-0.dtd" xmlns:dc="http://purl.org/dc/elements/1.1/" id="svg2" xml:space="preserve" viewBox="0 0 59.226 70.937" version="1.1" inkscape:version="0.91 r13725">
  <defs id="defs6">
    <linearGradient id="linearGradient186" y2="-30.553" gradientUnits="userSpaceOnUse" x2="55.013" gradientTransform="matrix(-.13936 -.78776 -.78776 .13936 .014936 56.743)" y1="-30.553" x1="22.44">
      <stop id="stop188" style="stop-color:#58a617" offset="0"/>
      <stop id="stop190" style="stop-color:#388c00" offset="1"/>
    </linearGradient>
  </defs>
  <g id="g10" transform="matrix(1.25 0 0 -1.25 0 70.937)">
    <g id="g12">
      <path id="path14" style="fill-rule:evenodd;fill:#dbb02c" d="m20.695 50.101c-0.238 0.242-0.734 0.574-1.48 1-1.094 0.348-1.692 0.574-1.801 0.684-0.133 0.133-0.039 0.316 0.281 0.558 0.239 0.188 0.481 0.332 0.719 0.442 0.133 0.051 0.547 0.133 1.242 0.238 0.344 0.055 0.52 0.281 0.52 0.68 0 0.347 0.027 0.574 0.078 0.679 0.055 0.188 0.203 0.387 0.441 0.602 0.535 0.48 1.2 0.852 2 1.117 0.559 0.16 1.426 0.321 2.602 0.481 0.851 0.136 1.371 0.187 1.558 0.16 0.215-0.024 0.536-0.16 0.961-0.399 0.372-0.214 0.692-0.308 0.957-0.281 0.11 0 0.469 0.055 1.082 0.16 0.399 0.082 0.758 0.082 1.083 0 0.503-0.105 1.089-0.32 1.757-0.64 0.371-0.211 0.918-0.504 1.641-0.879 0.934-0.481 1.652-0.934 2.16-1.36 0.399-0.293 0.613-0.574 0.641-0.839 0.023-0.161-0.016-0.309-0.121-0.442-0.11-0.16-0.2-0.277-0.282-0.359-0.132-0.188-0.199-0.332-0.199-0.442 0-0.105 0.067-0.25 0.199-0.437 0.293-0.481 0.789-1.149 1.481-2 0.773-1.067 1.082-1.856 0.922-2.36-0.16-0.429-0.723-0.64-1.684-0.64-1.117-0.027-2.359-0.695-3.719-2-0.293-0.293-0.519-0.613-0.679-0.961l-8.719 1.879c-1.254 0.508-2.121 0.84-2.602 1 0 0.722-0.05 1.359-0.16 1.922-0.16 0.8-0.238 1.238-0.238 1.32-0.16 0.48-0.375 0.852-0.641 1.117z" inkscape:connector-curvature="0"/>
      <path id="path16" style="fill-rule:evenodd;fill:#cfa832" d="m21.734 49.464c0 0.399-0.144 0.891-0.437 1.481l0.117-0.121c0.293-0.32 0.496-0.641 0.602-0.961 0-0.695-0.055-1.348-0.161-1.961-0.082-0.293-0.16-0.492-0.238-0.598l-0.043 0.36-0.039 0.121 0.16 0.316c0.028 0.137 0.039 0.59 0.039 1.363z" inkscape:connector-curvature="0"/>
      <path id="path18" style="fill-rule:evenodd;fill:#cfa832" d="m27.414 55.304c-0.133 0.211-0.211 0.371-0.238 0.481-0.082 0.183 0 0.293 0.238 0.316 0.082 0.028 0.309-0.023 0.68-0.156 0.136-0.027 0.386-0.055 0.761-0.082 0.079-0.078 0.172-0.32 0.282-0.719 0.453-0.722 0.718-1.453 0.797-2.199 0.027-0.457-0.028-1.094-0.161-1.922 0.028-0.398 0.067-0.668 0.122-0.801 0.105-0.293 0.293-0.453 0.558-0.48 0.188-0.024 0.363 0.043 0.524 0.203 0.238 0.211 0.386 0.332 0.437 0.359 0.027-0.054 0.066-0.226 0.121-0.519 0.055-0.215 0.133-0.363 0.238-0.442 0.43-0.265 1.028 0.039 1.801 0.918l0.762 0.84c0.293 0.348 0.504 0.547 0.641 0.602 0.078 0.054 0.304 0.082 0.679 0.082 0.106-0.215 0.051-0.563-0.16-1.043 0.348 0.293 0.641 0.242 0.879-0.16 0.055-0.078 0.176-0.438 0.359-1.078 0.028-0.161 0.082-0.415 0.161-0.762-0.028-0.16-0.133-0.332-0.321-0.52-0.211-0.211-0.371-0.359-0.48-0.437-0.637-0.696-1.09-1.336-1.36-1.922h-0.078c-0.215 0-0.386 0.121-0.519 0.359-0.11 0.188-0.16 0.508-0.16 0.961l0.117 0.239c0.027 0.082 0.281 0.429 0.761 1.042 0.481 0.614 0.68 1.266 0.602 1.958l-0.363-0.079-0.039 0.161c-0.133-0.133-0.215-0.266-0.239-0.403l-0.32-0.437c-0.242-0.348-0.441-0.602-0.601-0.762-0.266-0.266-0.868-0.691-1.801-1.277-0.266-0.161-0.52-0.243-0.758-0.243-0.348-0.027-0.559 0.094-0.641 0.36-0.054 0.137-0.066 0.32-0.039 0.562v0.598c-0.105-0.027-0.176 0.016-0.199 0.121 0 0.133-0.016 0.227-0.043 0.281-0.211-0.16-0.398-0.293-0.559-0.402-0.293-0.16-0.507-0.211-0.64-0.16l-0.078 0.402h-0.043v0.039l0.242 2c0.027 0.399 0.016 1-0.039 1.801l0.039 0.559c0 0.054-0.215 0.414-0.641 1.082-0.027-0.457-0.039-1.121-0.039-2-0.027-0.774-0.133-1.43-0.32-1.961-0.32-0.828-0.563-1.36-0.719-1.602-0.562-0.773-0.91-1.211-1.043-1.32-0.32-0.238-0.586-0.332-0.801-0.278-0.238 0.051-0.41 0.227-0.519 0.52-0.078 0.348-0.145 0.598-0.199 0.758-0.078-0.024-0.172-0.172-0.282-0.438-0.105-0.242-0.211-0.386-0.316-0.441-0.082-0.051-0.375-0.027-0.883 0.082h-0.117l-0.32 0.039-0.043 0.039c-0.106 0.055-0.227 0.172-0.36 0.359l0.2-0.039c0.269-0.105 0.48-0.148 0.64-0.121 0.188 0.082 0.442 0.282 0.762 0.602 0.398 0.238 0.641 0.437 0.719 0.598 0.082 0.453 0.148 0.8 0.199 1.042l0.32-0.121c0.375-0.082 0.719-0.121 1.043-0.121h0.52c0.105 0.055 0.211 0.242 0.316 0.563 0.297 0.773 0.387 1.719 0.281 2.84-0.05 0.797-0.16 1.359-0.32 1.679z" inkscape:connector-curvature="0"/>
      <path id="path20" style="fill-rule:evenodd;fill:#cfa832" d="m20.457 52.863c0.105-0.188 0.172-0.465 0.199-0.84l0.078-0.121c-0.211 0.293-0.453 0.52-0.718 0.68l-0.399 0.16 0.317 0.203 0.043 0.039c0.105 0.027 0.211 0.027 0.32 0l0.16-0.121z" inkscape:connector-curvature="0"/>
      <path id="path22" style="fill-rule:evenodd;fill:#cfa832" d="m36.414 51.222v0.242c0.027 0.024 0.109 0.067 0.242 0.118-0.105-0.239-0.082-0.493 0.078-0.758 0.293-0.481 0.789-1.149 1.481-2l0.242-0.36c-0.027-0.16-0.082-0.414-0.16-0.761-0.055-0.293-0.149-0.52-0.281-0.68l0.039 0.16c0.187 0.188 0.242 0.481 0.16 0.879 0.027 0.188 0.027 0.32 0 0.402 0 0.024-0.106 0.2-0.32 0.52-0.372 0.426-0.653 0.773-0.84 1.039-0.399 0.481-0.614 0.879-0.641 1.199z" inkscape:connector-curvature="0"/>
      <path id="path24" style="fill-rule:evenodd;fill:#c29d2f" d="m38.016 47.023c-0.055-0.375-0.2-0.574-0.442-0.601h-0.277c0.293 0.136 0.531 0.335 0.719 0.601z" inkscape:connector-curvature="0"/>
      <path id="path26" style="fill-rule:evenodd;fill:#c29d2f" d="m36.297 46.422c-0.723-0.426-1.254-0.637-1.602-0.637l0.039 0.078c0.161 0 0.375 0.082 0.641 0.238 0.426 0.27 0.828 0.387 1.199 0.363h0.082l-0.359-0.042z" inkscape:connector-curvature="0"/>
      <path id="path28" style="fill-rule:evenodd;fill:#c29d2f" d="m34.496 49.664 0.32 0.437-0.961-1.597c-0.214-0.266-0.507-0.536-0.878-0.801l-0.762-0.52-0.16-0.16c-0.133-0.078-0.481-0.121-1.039-0.121-0.375 0-0.625 0.027-0.762 0.082-0.184 0.051-0.316 0.199-0.399 0.438-0.054 0.269-0.105 0.468-0.16 0.601-0.293-0.16-0.48-0.148-0.558 0.039l0.078 0.68c0.133-0.051 0.347 0 0.64 0.16 0.161 0.109 0.348 0.242 0.559 0.402 0.027-0.054 0.043-0.148 0.043-0.281 0.023-0.105 0.094-0.148 0.199-0.121v-0.598c-0.027-0.242-0.015-0.429 0.039-0.562 0.082-0.266 0.293-0.387 0.641-0.36 0.238 0 0.492 0.082 0.758 0.243 0.933 0.586 1.535 1.011 1.801 1.277 0.16 0.16 0.359 0.414 0.601 0.762z" inkscape:connector-curvature="0"/>
      <path id="path30" style="fill-rule:evenodd;fill:#c29d2f" d="m29.336 51.183-0.242-2c-0.051 0.348-0.16 0.574-0.321 0.68-0.183-0.133-0.382-0.375-0.597-0.719-0.242-0.453-0.414-0.734-0.52-0.84-0.668-0.722-1.347-1.027-2.039-0.922-0.187 0-0.336 0.055-0.441 0.161-0.028 0.027-0.067 0.093-0.121 0.199-0.028 0.055-0.094 0.066-0.2 0.043-0.082-0.028-0.132-0.082-0.16-0.16-0.054-0.082-0.121-0.121-0.199-0.121-0.105 0-0.254 0.066-0.441 0.199-0.215 0.133-0.36 0.199-0.438 0.199l-0.16 0.043h0.117c0.508-0.109 0.801-0.137 0.883-0.082 0.105 0.055 0.211 0.199 0.316 0.441 0.11 0.266 0.204 0.414 0.282 0.438 0.054-0.16 0.121-0.414 0.199-0.758 0.109-0.293 0.281-0.469 0.519-0.52 0.215-0.054 0.481 0.04 0.801 0.278 0.133 0.109 0.481 0.547 1.043 1.32 0.156 0.242 0.399 0.774 0.719 1.602 0.187 0.531 0.293 1.187 0.32 1.961 0 0.879 0.012 1.543 0.039 2 0.426-0.668 0.641-1.028 0.641-1.082l-0.039-0.559c0.051-0.801 0.066-1.402 0.039-1.801z" inkscape:connector-curvature="0"/>
      <path id="path32" style="fill-rule:evenodd;fill:#c29d2f" d="m35.016 49.343c0.105 0.399 0.132 0.735 0.078 1l0.363 0.079c0.078-0.692-0.121-1.344-0.602-1.958-0.48-0.613-0.734-0.96-0.761-1.042l-0.117-0.239c0-0.453 0.05-0.773 0.16-0.961 0.133-0.238 0.304-0.359 0.519-0.359h0.078l-0.039-0.078c0.348 0 0.879 0.211 1.598 0.637l0.363 0.042 0.918-0.042c0.242 0.027 0.387 0.226 0.442 0.601 0.132 0.16 0.226 0.387 0.277 0.68 0.082 0.347 0.137 0.601 0.16 0.761l0.281-0.441v-0.68c-0.027-0.265-0.211-0.519-0.558-0.761-0.293-0.184-0.614-0.305-0.961-0.36-0.719-0.078-1.094-0.121-1.121-0.121-0.77-0.238-1.199-0.359-1.278-0.359-0.453-0.078-0.8-0.078-1.043 0-0.105 0.027-0.222 0.109-0.359 0.242-0.16 0.133-0.293 0.199-0.398 0.199-0.028 0.535 0.226 0.985 0.757 1.36 0.293 0.214 0.575 0.519 0.844 0.921 0.156 0.211 0.289 0.504 0.399 0.879z" inkscape:connector-curvature="0"/>
      <path id="path34" style="fill-rule:evenodd;fill:#c29d2f" d="m22.215 49.023c0.055-0.535-0.012-1.055-0.199-1.559-0.082-0.242-0.188-0.429-0.321-0.562l-0.078 0.402c0.078 0.106 0.156 0.305 0.238 0.598 0.106 0.613 0.161 1.266 0.161 1.961l0.199-0.84z" inkscape:connector-curvature="0"/>
      <path id="path36" style="fill-rule:evenodd;fill:#ad8d32" d="m22.215 49.902c-0.055 0.242-0.215 0.496-0.481 0.762-0.398 0.425-0.613 0.652-0.64 0.679l-0.078 0.079 0.359-0.2c0.133-0.078 0.32-0.304 0.559-0.679 0.214-0.239 0.375-0.68 0.48-1.321v-0.238l-0.199 0.918z" inkscape:connector-curvature="0"/>
      <path id="path38" style="fill-rule:evenodd;fill:#ad8d32" d="m21.016 51.464 0.238-0.402 0.043-0.117c-0.242 0.238-0.363 0.371-0.363 0.398-0.133 0.133-0.184 0.305-0.161 0.52 0-0.16 0.082-0.293 0.243-0.399z" inkscape:connector-curvature="0"/>
      <path id="path40" style="fill-rule:evenodd;fill:#ad8d32" d="m22.215 49.261c-0.078 0.43-0.145 0.684-0.199 0.762v-0.16c-0.106 0.32-0.309 0.641-0.602 0.961l-0.117 0.121-0.043 0.117-0.16 0.281c0.027-0.027 0.242-0.254 0.64-0.679 0.266-0.266 0.426-0.52 0.481-0.762l0.199-0.918v-0.359l-0.199 0.636z" inkscape:connector-curvature="0"/>
      <path id="path42" style="fill-rule:evenodd;fill:#ad8d32" d="m34.816 50.101c0.024 0.137 0.106 0.27 0.239 0.403l0.039-0.161c-0.106-0.027-0.199-0.105-0.278-0.242z" inkscape:connector-curvature="0"/>
      <path id="path44" style="fill-rule:evenodd;fill:#ad8d32" d="m22.016 49.863v0.16c0.054-0.078 0.121-0.332 0.199-0.762l0.199-0.636-0.039-0.84c-0.027-0.188-0.094-0.453-0.199-0.801-0.106-0.293-0.149-0.547-0.121-0.762l-0.36-0.199v0.879c0.133 0.133 0.239 0.32 0.321 0.562 0.187 0.504 0.254 1.024 0.199 1.559l-0.199 0.84z" inkscape:connector-curvature="0"/>
      <path id="path46" style="fill-rule:evenodd;fill:#ad8d32" d="m34.816 50.101c0.079 0.137 0.172 0.215 0.278 0.242 0.054-0.265 0.027-0.601-0.078-1-0.11-0.375-0.243-0.668-0.399-0.879-0.269-0.402-0.551-0.707-0.844-0.921-0.531-0.375-0.785-0.825-0.757-1.36 0.105 0 0.238-0.066 0.398-0.199 0.137-0.133 0.254-0.215 0.359-0.242 0.243-0.078 0.59-0.078 1.043 0 0.079 0 0.508 0.121 1.278 0.359 0.027 0 0.402 0.043 1.121 0.121 0.347 0.055 0.668 0.176 0.961 0.36 0.347 0.242 0.531 0.496 0.558 0.761v0.68c0.243-0.375 0.375-0.707 0.403-1-0.137-0.215-0.375-0.414-0.723-0.601l-0.598-0.36h-0.8c-0.426 0.027-0.653-0.027-0.68-0.16l0.117-0.078c-0.265-0.027-0.453-0.067-0.558-0.121l-0.442-0.36c-0.371-0.242-1.066-0.332-2.078-0.281-0.293 0.055-0.453 0.094-0.48 0.121-0.028 0.188-0.055 0.321-0.083 0.399l-0.078 0.242-0.281 0.16c-0.055 0.051-0.066 0.117-0.039 0.199 0 0.106 0.066 0.227 0.199 0.36 0.078 0.054 0.188 0.148 0.321 0.281l0.8 0.961c0.106 0.16 0.157 0.265 0.157 0.316-0.106-0.238-0.278-0.437-0.52-0.597-0.293-0.161-0.519-0.293-0.68-0.403l-0.714-0.597c-0.188-0.133-0.481-0.2-0.883-0.2-0.746 0-1.16 0.067-1.239 0.2-0.054 0.05-0.082 0.187-0.082 0.398 0.028 0.215 0 0.359-0.078 0.441-0.347-0.347-0.562-0.48-0.64-0.398v0.598l0.078 0.519c0.082-0.183 0.269-0.199 0.562-0.039 0.051-0.133 0.106-0.332 0.16-0.601 0.079-0.239 0.211-0.387 0.399-0.438 0.133-0.055 0.387-0.082 0.758-0.082 0.562 0 0.91 0.043 1.043 0.121l0.16 0.16 0.758 0.52c0.375 0.265 0.668 0.535 0.882 0.801l0.961 1.597z" inkscape:connector-curvature="0"/>
      <path id="path48" style="fill-rule:evenodd;fill:#ad8d32" d="m28.816 49.863c0.266-0.133 0.399-0.359 0.399-0.68v-0.039c-0.32-0.055-0.547-0.16-0.68-0.32-0.105-0.188-0.215-0.336-0.32-0.442l-0.481-0.32c-0.078-0.293-0.172-0.504-0.281-0.64-0.316-0.372-0.851-0.504-1.598-0.399-0.32 0.027-0.507 0.055-0.562 0.078-0.156 0.028-0.266 0.137-0.316 0.321h-0.161c-0.027-0.184-0.121-0.266-0.281-0.239-0.105 0.028-0.215 0.106-0.32 0.239-0.16 0.187-0.465 0.347-0.918 0.48v0.043h0.16l0.16-0.043c0.078 0 0.223-0.066 0.438-0.199 0.187-0.133 0.336-0.199 0.441-0.199 0.078 0 0.145 0.039 0.199 0.121 0.028 0.078 0.082 0.132 0.16 0.16 0.161 0.051 0.282-0.028 0.36-0.242 0.082-0.106 0.215-0.161 0.402-0.161 0.719-0.105 1.41 0.2 2.078 0.922 0.106 0.106 0.282 0.387 0.52 0.84 0.215 0.344 0.414 0.586 0.601 0.719z" inkscape:connector-curvature="0"/>
      <path id="path50" style="fill-rule:evenodd;fill:#856c2a" d="m29.176 48.742-0.082 0.16v0.242h0.043l0.078-0.402h-0.039z" inkscape:connector-curvature="0"/>
      <path id="path52" style="fill-rule:evenodd;fill:#856c2a" d="m29.094 48.222v0.68l0.082-0.16h0.039l-0.078-0.68-0.043 0.16z" inkscape:connector-curvature="0"/>
      <path id="path54" style="fill-rule:evenodd;fill:#856c2a" d="m22.414 48.984 0.16-0.48c0.133-0.243 0.309-0.403 0.52-0.481l0.203-0.078c-0.215-0.055-0.387-0.055-0.524 0-0.132 0.051-0.226 0.211-0.277 0.477l-0.082 0.203v0.359z" inkscape:connector-curvature="0"/>
      <path id="path56" style="fill-rule:evenodd;fill:#856c2a" d="m38.414 46.422c0.348 0.187 0.586 0.386 0.723 0.601 0.051-0.215 0.051-0.398 0-0.559-0.16-0.429-0.723-0.64-1.684-0.64-1.117-0.027-2.359-0.695-3.719-2-0.293-0.293-0.519-0.613-0.679-0.961l-8.719 1.879c-1.254 0.508-2.121 0.84-2.602 1l-0.039 0.281 0.36 0.199c-0.028 0.215 0.015 0.469 0.121 0.762 0.105 0.348 0.172 0.613 0.199 0.801l0.039 0.84 0.082-0.203c0.051-0.266 0.145-0.426 0.277-0.477 0.137-0.055 0.309-0.055 0.524 0v-0.043c0.453-0.133 0.758-0.293 0.918-0.48 0.109-0.133 0.215-0.211 0.32-0.239 0.16-0.027 0.254 0.055 0.281 0.239h0.161c0.05-0.184 0.16-0.293 0.316-0.321 0.055-0.023 0.242-0.051 0.562-0.078 0.747-0.105 1.282 0.027 1.598 0.399 0.109 0.136 0.203 0.347 0.281 0.64 0.082 0.082 0.215 0.188 0.403 0.32 0.425 0.43 0.746 0.68 0.957 0.762v-0.922l0.043-0.16-0.082-0.519v-0.598c0.082-0.082 0.293 0.051 0.64 0.398 0.082-0.082 0.106-0.226 0.082-0.441 0-0.211 0.024-0.348 0.078-0.398 0.083-0.133 0.497-0.2 1.243-0.2 0.398 0 0.691 0.067 0.879 0.2l0.718 0.597c0.16 0.11 0.387 0.242 0.68 0.403 0.242 0.16 0.414 0.359 0.52 0.597 0-0.051-0.051-0.156-0.157-0.316l-0.8-0.961c-0.133-0.133-0.243-0.227-0.321-0.281-0.133-0.133-0.199-0.254-0.199-0.36-0.027-0.082-0.016-0.148 0.039-0.199l0.281-0.16 0.078-0.242c0.028-0.078 0.055-0.211 0.082-0.399 0.028-0.027 0.188-0.066 0.481-0.121 1.012-0.051 1.707 0.039 2.078 0.281l0.441 0.36c0.106 0.054 0.293 0.094 0.559 0.121l-0.117 0.078c0.027 0.133 0.254 0.187 0.68 0.16h0.8l0.594 0.36z" inkscape:connector-curvature="0"/>
      <path id="path58" style="fill-rule:evenodd;fill:#e3bb44" d="m17.414 51.785c-0.133 0.133-0.039 0.316 0.281 0.558 0.239 0.188 0.481 0.332 0.719 0.442 0.242 0.105 0.586 0.183 1.043 0.238 0.344 0.055 0.559 0.145 0.637 0.281 0-0.109-0.039-0.215-0.117-0.32-0.348-0.082-0.547-0.121-0.602-0.121l0.242-0.121-0.64-0.238c-0.215-0.028-0.36-0.055-0.442-0.082-0.16-0.051-0.238-0.161-0.238-0.321-0.027-0.156 0.078-0.293 0.32-0.398 0.106-0.055 0.278-0.121 0.52-0.199 0.238-0.161 0.597-0.442 1.078-0.84 0.402-0.242 0.613-0.496 0.64-0.762-0.054 0.109-0.105 0.176-0.16 0.199-0.238 0.242-0.734 0.574-1.48 1-1.094 0.348-1.692 0.574-1.801 0.684z" inkscape:connector-curvature="0"/>
      <path id="path60" style="fill-rule:evenodd;fill:#e3bb44" d="m19.977 52.984-0.043-0.039-0.317-0.203-0.242 0.121c0.055 0 0.254 0.039 0.602 0.121z" inkscape:connector-curvature="0"/>
      <path id="path62" style="fill-rule:evenodd;fill:#e3bb44" d="m20.254 54.422c0.055 0.16 0.203 0.347 0.441 0.562 0.535 0.48 1.2 0.852 2 1.117 0.559 0.16 1.426 0.321 2.602 0.481 0.851 0.136 1.371 0.187 1.558 0.16 0.215 0 0.454-0.078 0.719-0.238-0.558 0-0.984-0.067-1.281-0.2-0.211-0.293-0.414-0.468-0.598-0.519-0.402 0.051-0.679 0.078-0.84 0.078h-0.562l-0.359-0.16-0.758-0.442-0.879-0.277c-0.348-0.16-0.641-0.359-0.883-0.602-0.266-0.32-0.359-0.625-0.277-0.918 0.023-0.136 0.078-0.335 0.16-0.601 0-0.078-0.055-0.16-0.16-0.238-0.082-0.215-0.067-0.457 0.039-0.723 0.027-0.027 0.144-0.238 0.359-0.641l-0.68 0.442v0.039c-0.105 0.562-0.238 0.933-0.398 1.121l-0.242 0.398-0.039 0.403v0.121c0 0.316 0.027 0.531 0.078 0.637z" inkscape:connector-curvature="0"/>
      <path id="path64" style="fill-rule:evenodd;fill:#e3bb44" d="m29.734 55.863c-0.398 0.133-0.613 0.215-0.64 0.238l0.281 0.043 1.762-0.801v-0.64c0-0.614-0.071-1.106-0.203-1.481-0.106-0.293-0.305-0.707-0.598-1.238 0.051 0.961 0.012 1.906-0.121 2.84 0 0.293-0.012 0.504-0.039 0.64-0.055 0.161-0.199 0.293-0.442 0.399z" inkscape:connector-curvature="0"/>
      <path id="path66" style="fill-rule:evenodd;fill:#e3bb44" d="m31.934 55.382c0.214-0.105 0.855-0.293 1.921-0.558l0.36-0.039 0.121-0.082c0.93-0.481 1.652-0.934 2.156-1.36 0.297-0.187 0.496-0.414 0.602-0.679l-5.957 2.679v0.079c0.078 0.187 0.343 0.175 0.797-0.04z" inkscape:connector-curvature="0"/>
      <path id="path68" style="fill-rule:evenodd;fill:#e3bb44" d="m38.176 47.945-0.121-0.684v-0.078c-0.133-0.133-0.282-0.199-0.438-0.199-0.59-0.027-1.027-0.082-1.32-0.16-0.508-0.348-0.867-0.496-1.082-0.442 0.32 0.106 0.719 0.403 1.199 0.879 0.402 0.348 0.723 0.774 0.961 1.282 0 0.187 0.039 0.359 0.121 0.519l0.238-0.238c0.215-0.133 0.375-0.387 0.481-0.762l-0.039-0.117z" inkscape:connector-curvature="0"/>
      <path id="path70" style="fill-rule:evenodd;fill:#e3bb44" d="m38.215 48.062c0.082-0.398 0.027-0.691-0.16-0.879v0.078l0.121 0.684 0.039 0.117z" inkscape:connector-curvature="0"/>
      <path id="path72" style="fill-rule:evenodd;fill:#855f26" d="m30.734 39.261c-2.879-1.332-5.933-0.957-9.16 1.121l-1.758 1.02c-0.007 0.191-0.058 0.746-0.16 1.66-0.133 0.961 0.133 1.723 0.801 2.281 0.238 0.188 0.984 0.586 2.238 1.2 0.801 0.375 1.961 0.496 3.481 0.359 1.437-0.133 2.758-0.426 3.961-0.879 1.066-0.426 1.972-0.984 2.718-1.68 0.614-0.613 1-1.214 1.161-1.8 0.078-0.293-0.176-0.774-0.762-1.438-0.692-0.777-1.531-1.387-2.52-1.844z" inkscape:connector-curvature="0"/>
      <path id="path74" style="fill-rule:evenodd;fill:#a67d41" d="m30.137 46.023 0.156-0.078c-0.852 0.316-1.625 0.492-2.316 0.519-0.161 0-0.817 0.106-1.961 0.321-0.828 0.16-1.481 0.172-1.961 0.039-0.399-0.082-0.774-0.254-1.121-0.52-0.399-0.347-0.704-0.601-0.918-0.761-0.668 0.082-1.266-0.172-1.801-0.758l-0.559-0.723c0.133 0.586 0.504 1.094 1.117 1.52 0.243 0.16 0.883 0.48 1.922 0.961 0.801 0.375 1.961 0.496 3.481 0.359 1.437-0.133 2.758-0.426 3.961-0.879z" inkscape:connector-curvature="0"/>
      <path id="path76" style="fill-rule:evenodd;fill:#694b1e" d="m32.094 44.945c1.043-0.777 1.683-1.574 1.922-2.402 0.078-0.293-0.176-0.774-0.762-1.442-0.692-0.773-1.531-1.383-2.52-1.84-2.879-1.332-5.933-0.957-9.16 1.121l-1.758 1-0.16 1.68c-0.082 0.453-0.054 0.856 0.078 1.199 0.641 0.188 1.188 0.414 1.641 0.684 0.535 0.293 1.441 0.504 2.719 0.637 1.468 0.16 2.695 0.109 3.683-0.16 0.93-0.293 1.864-0.614 2.797-0.958 0.778-0.32 1.215-0.519 1.321-0.601 0.585 0.215 0.656 0.574 0.199 1.082z" inkscape:connector-curvature="0"/>
      <path id="path78" style="fill-rule:evenodd;fill:#855f26" d="m22.496 47.543c0.344 0.214 0.734 0.265 1.16 0.16 0.293-0.055 0.641-0.293 1.039-0.719l-0.519-1.082c-0.028-0.238 0.012-0.531 0.117-0.879-0.559-0.16-1-0.215-1.316-0.16-0.75-0.051-1.215 0-1.403 0.16-0.133 0.106-0.238 0.332-0.32 0.68-0.051 0.347-0.051 0.613 0 0.801 0.055 0.214 0.469 0.558 1.242 1.039z" inkscape:connector-curvature="0"/>
      <path id="path80" style="fill-rule:evenodd;fill:#694b1e" d="m23.496 46.742c0 0.082-0.066 0.215-0.199 0.402 0.316 0 0.492 0.012 0.519 0.039 0.079 0.106 0.024 0.281-0.16 0.52 0.293-0.078 0.641-0.321 1.039-0.719l-0.519-1.082c-0.028-0.238 0.012-0.531 0.117-0.879-0.559-0.16-1-0.215-1.316-0.16-0.75-0.051-1.215 0-1.403 0.16-0.078 0.082-0.172 0.266-0.277 0.559 0.426-0.184 0.918-0.16 1.476 0.082 0.161 0.027 0.348 0.238 0.563 0.64 0.133 0.211 0.187 0.36 0.16 0.438z" inkscape:connector-curvature="0"/>
      <path id="path82" style="fill-rule:evenodd;fill:#a67d41" d="m22.734 47.183c-0.187-0.027-0.32-0.105-0.398-0.238 0.187 0 0.32-0.082 0.398-0.242-0.531 0.054-0.945-0.028-1.238-0.239-0.133-0.16-0.226-0.269-0.281-0.32l0.039 0.36c0.055 0.214 0.469 0.558 1.242 1.039 0.344 0.214 0.734 0.265 1.16 0.16h0.078c-0.371-0.078-0.625-0.16-0.757-0.239-0.11-0.16-0.188-0.253-0.243-0.281z" inkscape:connector-curvature="0"/>
      <path id="path84" style="fill-rule:evenodd;fill:#dbb02c" d="m21.816 44.742c6.664 1.308 11.907-1.371 15.719-8.039 2.613-4.586 3.988-9.094 4.121-13.52 0.051-1.601 0.934-4.304 2.637-8.121 1.867-4.105 2.867-6.519 3-7.238 0.269-1.442-0.09-2.535-1.078-3.281-0.852-0.641-2.121-0.961-3.801-0.961-0.852 0-2.812-0.532-5.879-1.598-3.199-1.121-5.922-1.746-8.16-1.879-3.094-0.187-6.586-0.121-10.48 0.199-3.868 0.317-6.762 0.774-8.68 1.36-1.68 0.508-3.199 1.105-4.559 1.8-0.722 0.344-1.949 1.024-3.683 2.04-1.094 0.64-1.266 1.906-0.52 3.8 1.016 1.946 1.59 3.118 1.723 3.52 0.187 0.453 0.304 1.48 0.359 3.082 0.078 3.09 0.133 4.879 0.16 5.359 0.133 2.266 0.465 4.145 1 5.641 0.668 1.785 2 4.144 4 7.078 1.84 2.668 4.52 5.188 8.039 7.559 2.801 1.894 4.828 2.961 6.082 3.199z" inkscape:connector-curvature="0"/>
      <path id="path86" style="fill-rule:evenodd;fill:#cfa832" d="m24.137 44.101-0.52-0.519c-0.137-0.211-0.254-0.465-0.363-0.758-0.426-0.535-0.785-0.895-1.078-1.082-0.453-0.293-0.949-0.371-1.481-0.238-0.105 0.718 0.305 1.546 1.239 2.48l-0.039-0.199c-0.266-0.348-0.481-0.723-0.641-1.121 0.586-0.133 1.187 0.054 1.801 0.558 0.32 0.293 0.785 0.735 1.402 1.321l0.039-0.282-0.281-0.238-0.078 0.078z" inkscape:connector-curvature="0"/>
      <path id="path88" style="fill-rule:evenodd;fill:#cfa832" d="m5.734 11.343c-1.039 0.321-2.144 1.149-3.32 2.481 0.027 0.16 0.094 2.055 0.203 5.68 0.293-1.2 0.813-2.559 1.559-4.082 0.187-0.344 0.531-1.024 1.039-2.04 0.426-0.906 0.601-1.585 0.519-2.039z" inkscape:connector-curvature="0"/>
      <path id="path90" style="fill-rule:evenodd;fill:#cfa832" d="m30.215 42.062c0.242-0.453 0.535-1.012 0.879-1.68 0.32-0.531 0.695-1.05 1.121-1.558 0.691-0.828 1.109-1.828 1.242-3 0.133-1.336-0.242-2.281-1.121-2.84 0.773-0.027 1.226-0.375 1.359-1.039 0.082-0.402 0.094-1.094 0.039-2.082 0.028-0.535 0.133-1.227 0.321-2.078 0.242-1.043 0.386-1.735 0.441-2.082 0.078-0.535 0.227-1.332 0.442-2.399 0.132-0.933 0.183-1.734 0.156-2.402-0.051-0.801-0.278-1.52-0.68-2.16-0.508-0.746-0.906-1.371-1.199-1.879 0.133 0 0.691 0.094 1.68 0.281 0.882 0.16 1.402 0.184 1.562 0.078 0.398-0.293 0.531-0.812 0.398-1.558-0.105-0.559-0.304-1.067-0.601-1.52-0.586-0.879-0.879-1.332-0.879-1.359 0-0.055 0.359-0.563 1.082-1.52 0.664-0.906 1.199-1.894 1.598-2.961-0.399 0-0.934 0.266-1.598 0.801-0.668 0.559-1.254 0.84-1.762 0.84-0.746-0.027-1.254-0.254-1.519-0.68-0.188-0.269-0.399-0.812-0.641-1.64-0.453-1.387-0.801-2.243-1.039-2.559-0.402-0.562-0.828-0.934-1.281-1.121-0.586-0.109-1.078-0.227-1.481-0.359-3.757-1.282-8.039-1.922-12.839-1.922-0.934 0-1.895 0.093-2.879 0.281-0.243 0.055-1.149 0.281-2.719 0.68-1.094 0.082-1.867 0.199-2.32 0.359-0.243 0.109-0.657 0.348-1.243 0.723-0.504 0.347-0.933 0.574-1.277 0.679-0.988 0.321-1.816 0.692-2.48 1.118-0.668 0.402-1.375 0.976-2.122 1.722-0.214 0.211-0.453 0.559-0.718 1.039l0.277 1c-0.023-0.718 0.055-1.226 0.242-1.519 0.184-0.242 0.641-0.547 1.36-0.922 0.347-0.188 1.011-0.613 2-1.281 0.746-0.508 1.425-0.84 2.039-1 4.082-0.985 6.586-1.614 7.519-1.879 1.973-0.563 4.348-0.696 7.121-0.403 1.762 0.215 2.785 0.375 3.078 0.481 0.801 0.32 1.415 1.055 1.844 2.203 0.477 1.25 0.957 2.25 1.438 3 0.586 0.879 1.347 1.68 2.281 2.398 0.773 0.614 1.254 1.309 1.441 2.079 0.133 0.535 0.145 1.429 0.039 2.683-0.425 0.024-1.441-0.043-3.039-0.203-1.308-0.133-2.32-0.078-3.043 0.16 1.922 0.508 3.282 0.961 4.082 1.36 1.493 0.8 2.305 1.843 2.438 3.121 0.027 0.48-0.051 0.972-0.238 1.48-0.321 0.801-0.493 1.266-0.52 1.399-0.187 0.882-0.332 1.988-0.441 3.32-0.078 1.519-0.149 2.656-0.2 3.402-0.16 1.172-0.253 2.012-0.281 2.52-0.051 0.906 0.067 1.718 0.36 2.437 0.082 0.188 0.308 0.574 0.683 1.16 0.317 0.508 0.52 0.922 0.598 1.243 0.242 0.933 0.187 2.066-0.16 3.398-0.371 1.281-0.879 2.293-1.52 3.043 0.055-0.215 0.293-0.949 0.719-2.203 0.297-0.824 0.414-1.598 0.363-2.32-0.64 0.054-1.203 0.574-1.683 1.562-0.426 1.145-0.758 1.895-1 2.238l-0.719 1.481-0.52 0.121c-0.133-0.32-0.199-0.774-0.199-1.36-0.348-0.64-0.601-1.027-0.762-1.16-0.078 0.078-0.199 0.211-0.359 0.399h0.082c0.184 0.32 0.332 0.785 0.438 1.398 0.136 0.668 0.253 1.137 0.363 1.403 0.371 0.05 0.773-0.36 1.199-1.243 0.508-1.039 0.867-1.636 1.078-1.797 0.055 1.04 0 1.797-0.16 2.278 0.43-0.024 0.801-0.227 1.121-0.598 0.188-0.187 0.426-0.547 0.719-1.082z" inkscape:connector-curvature="0"/>
      <path id="path92" style="fill-rule:evenodd;fill:#c29d2f" d="m24.695 43.101c0.106-0.211 0.2-0.316 0.282-0.316 0.105-0.508 0.238-0.867 0.398-1.082-0.266-0.055-0.48-0.055-0.641 0 0 0.082-0.078 0.933-0.238 2.558l0.039 0.043 0.199-0.359c-0.132-0.32-0.144-0.602-0.039-0.844z" inkscape:connector-curvature="0"/>
      <path id="path94" style="fill-rule:evenodd;fill:#c29d2f" d="m31.094 40.382c-0.344 0.668-0.637 1.227-0.879 1.68-0.293 0.535-0.531 0.895-0.719 1.082-0.32 0.371-0.695 0.574-1.121 0.598 0.16-0.481 0.215-1.238 0.16-2.278-0.211 0.161-0.574 0.758-1.078 1.797-0.43 0.883-0.828 1.297-1.203 1.243-0.106-0.266-0.227-0.735-0.359-1.403-0.106-0.613-0.254-1.078-0.438-1.398h-0.082c-0.16 0.215-0.293 0.574-0.398 1.082 0.183 0.027 0.277 0.437 0.277 1.238 0.43 0.586 0.934 0.707 1.519 0.359 0.293-0.187 0.75-0.64 1.364-1.359 0 0.559-0.055 1-0.16 1.32 0.503-0.265 1.144-0.707 1.918-1.32 0.878-0.695 1.519-1.16 1.921-1.398 0.157-0.11 0.598-0.309 1.317-0.602 0.535-0.215 0.922-0.465 1.16-0.762 0.109-0.105 0.199-0.316 0.281-0.636 0.106-0.321 0.199-0.536 0.281-0.641 0.106-0.187 0.372-0.547 0.801-1.082 0.399-0.48 0.653-0.84 0.758-1.078 0.188-0.481 0.188-1.149 0-2-0.266-1.094-0.398-1.695-0.398-1.801 0.023-0.586 0.238-1.32 0.64-2.199 0.024-0.055 0.399-0.762 1.117-2.121 0.188-0.375 0.547-1.039 1.082-2 0.426-0.906 0.575-1.625 0.438-2.16-0.023-0.051-0.414-0.692-1.156-1.918-0.27-0.453 0.066-1.028 1-1.723 0.746-0.586 1.211-1.066 1.398-1.438 0.238-0.562 0.199-1.242-0.121-2.042-0.48-1.25-1.598-2.387-3.359-3.399 0.187-0.027 1.066 0.039 2.64 0.199 1.094 0.11 1.879-0.039 2.36-0.437 0.453-0.403 0.734-0.922 0.84-1.563 0.082-0.371 0.175-0.945 0.281-1.718 0.054-0.215 0.293-0.68 0.719-1.399 0.347-0.586 0.496-1.094 0.441-1.519-0.082-0.774-0.652-1.387-1.719-1.84-0.961-0.403-1.867-0.551-2.722-0.442-0.211 0.028-0.625 0.2-1.239 0.52-0.48 0.265-0.906 0.359-1.281 0.281-0.559-0.109-0.918-0.496-1.078-1.16-0.188-0.801-0.336-1.254-0.442-1.359-0.238-0.243-0.558-0.375-0.96-0.403-0.481 0.028-0.868 0.028-1.161 0-0.343-0.027-0.957-0.133-1.839-0.32-0.747-0.16-1.36-0.238-1.84-0.238-1.012-0.028-2.215-0.243-3.598-0.641-1.789-0.508-2.949-0.801-3.48-0.879-1.442-0.242-3.094-0.281-4.961-0.121-0.028 0-1.653 0.199-4.879 0.602-1.414 0.265-2.453 0.437-3.121 0.519-0.828 0.211-1.746 0.52-2.762 0.918-1.094 0.801-2.145 1.399-3.16 1.801-1.067 0.48-1.973 0.734-2.719 0.758-0.508 0.32-0.906 0.629-1.199 0.922-0.188 0.48-0.199 1.066-0.039 1.757 0.265-0.48 0.504-0.824 0.718-1.039 0.747-0.746 1.454-1.32 2.122-1.718 0.664-0.426 1.492-0.801 2.48-1.122 0.344-0.105 0.773-0.332 1.277-0.679 0.586-0.375 1-0.614 1.243-0.719 0.453-0.16 1.226-0.281 2.32-0.359 1.57-0.403 2.476-0.629 2.719-0.68 0.984-0.188 1.945-0.281 2.879-0.281 4.8 0 9.082 0.64 12.839 1.918 0.403 0.132 0.895 0.254 1.481 0.359 0.453 0.188 0.879 0.563 1.281 1.121 0.238 0.32 0.586 1.172 1.039 2.559 0.242 0.828 0.453 1.375 0.641 1.64 0.265 0.426 0.773 0.653 1.519 0.68 0.508 0 1.094-0.277 1.762-0.84 0.664-0.531 1.199-0.801 1.598-0.801-0.399 1.067-0.934 2.055-1.598 2.961-0.723 0.961-1.082 1.469-1.082 1.52 0 0.027 0.293 0.48 0.879 1.359 0.297 0.453 0.496 0.961 0.601 1.52 0.133 0.75 0 1.269-0.398 1.562-0.16 0.106-0.684 0.078-1.562-0.082-0.985-0.187-1.547-0.281-1.68-0.281 0.293 0.508 0.691 1.133 1.199 1.883 0.402 0.64 0.629 1.359 0.68 2.16 0.027 0.664-0.024 1.465-0.156 2.398-0.215 1.067-0.364 1.868-0.442 2.399-0.055 0.348-0.199 1.043-0.441 2.082-0.188 0.851-0.293 1.547-0.321 2.078 0.055 0.988 0.043 1.68-0.039 2.082-0.133 0.664-0.586 1.012-1.359 1.039 0.879 0.559 1.254 1.508 1.121 2.84-0.133 1.176-0.551 2.176-1.242 3-0.426 0.508-0.801 1.031-1.121 1.562z" inkscape:connector-curvature="0"/>
      <path id="path96" style="fill-rule:evenodd;fill:#c29d2f" d="m24.535 44.304-0.039-0.043-0.039 0.282c-0.617-0.586-1.082-1.028-1.402-1.321-0.614-0.504-1.215-0.691-1.801-0.558 0.16 0.398 0.375 0.773 0.641 1.121l-0.04-0.203 0.161 0.16c-0.082-0.266-0.106-0.465-0.082-0.598l0.562 0.84c0.211 0.078 0.531 0.211 0.961 0.398 0.344 0.161 0.625 0.375 0.84 0.641h0.199c0.266-0.078 0.453-0.238 0.559-0.48l-0.321-0.598-0.199 0.359z" inkscape:connector-curvature="0"/>
      <path id="path98" style="fill-rule:evenodd;fill:#ad8d32" d="m22.336 44.343-0.402-0.359c0.109 0.238 0.308 0.531 0.601 0.879l0.281 0.039-0.48-0.559z" inkscape:connector-curvature="0"/>
      <path id="path100" style="fill-rule:evenodd;fill:#ad8d32" d="m0.176 6.504c0.293-0.293 0.691-0.602 1.199-0.922l-0.441-0.039c-0.372 0.242-0.625 0.558-0.758 0.961z" inkscape:connector-curvature="0"/>
      <path id="path102" style="fill-rule:evenodd;fill:#ad8d32" d="m7.656 2.703-0.402 0.32c1.016-0.402 1.934-0.707 2.762-0.922l-1.2 0.121c-0.425 0.055-0.816 0.215-1.16 0.481z" inkscape:connector-curvature="0"/>
      <path id="path104" style="fill-rule:evenodd;fill:#ad8d32" d="m25.215 45.023c-0.004-0.086-0.07-0.246-0.199-0.48-0.133 0.242-0.321 0.402-0.559 0.48 0.254 0.008 0.508 0.008 0.758 0 3-0.062 5.691-1.086 8.082-3.078 2.105-1.789 3.879-4.242 5.32-7.363l0.156-0.36 0.043-0.039c-0.722 0.16-0.988-0.441-0.8-1.801 0.16-1.226 0.398-2 0.718-2.32 1.602-1.707 2.442-3.226 2.52-4.558 0.055-1.149 0.016-2.082-0.117-2.801 0-0.051-0.055-0.172-0.16-0.36-0.082-0.16-0.122-0.293-0.122-0.398 0-0.16 0.051-0.348 0.161-0.563l0.32-0.64c0.641-1.332 1.492-3.387 2.559-6.16 0.507-1.227 0.8-2.293 0.878-3.2 0-0.105-0.023-0.347-0.078-0.718-0.027-0.293-0.015-0.508 0.039-0.641 0.082-0.187 0.282-0.453 0.602-0.801 0.371-0.343 0.598-0.625 0.68-0.84 0.238-0.585 0.293-1.187 0.16-1.8-0.188-0.852-0.414-1.453-0.68-1.797-0.375-0.453-0.949-0.696-1.723-0.723-1.199 0-1.972 0.027-2.316 0.082-1.121 0.348-1.934 0.481-2.441 0.399-0.454-0.051-1.016-0.293-1.68-0.719-0.879-0.535-1.43-0.84-1.641-0.922-1.144-0.398-1.988-0.746-2.519-1.039-0.293-0.188-0.692-0.426-1.199-0.719-0.426-0.215-0.868-0.336-1.321-0.359-2.426-0.11-4.187-0.27-5.281-0.481l-1.758-0.281c-1.762 0.055-3.469 0.133-5.121 0.242l-0.281 0.078c-2.426 0.614-4.121 1.028-5.078 1.243 3.226-0.403 4.851-0.602 4.879-0.602 1.867-0.16 3.519-0.121 4.961 0.121 0.531 0.078 1.691 0.371 3.48 0.879 1.383 0.398 2.586 0.613 3.598 0.641 0.48 0 1.093 0.078 1.84 0.238 0.882 0.187 1.496 0.293 1.839 0.32 0.293 0.028 0.684 0.028 1.161 0 0.402 0.028 0.722 0.16 0.96 0.403 0.106 0.105 0.254 0.558 0.442 1.359 0.16 0.664 0.519 1.051 1.078 1.16 0.375 0.078 0.801-0.016 1.281-0.281 0.614-0.32 1.028-0.492 1.239-0.52 0.855-0.109 1.761 0.039 2.722 0.442 1.067 0.449 1.641 1.066 1.719 1.84 0.055 0.425-0.094 0.933-0.441 1.519-0.426 0.719-0.665 1.184-0.719 1.399-0.106 0.773-0.199 1.347-0.281 1.718-0.106 0.641-0.387 1.16-0.84 1.563-0.481 0.398-1.266 0.547-2.36 0.437-1.574-0.16-2.453-0.226-2.64-0.199 1.761 1.012 2.883 2.149 3.359 3.399 0.32 0.8 0.359 1.48 0.121 2.042-0.187 0.372-0.652 0.852-1.398 1.438-0.934 0.695-1.27 1.27-1 1.723 0.746 1.226 1.133 1.867 1.156 1.918 0.137 0.535-0.012 1.254-0.438 2.16-0.535 0.961-0.894 1.625-1.082 2-0.718 1.359-1.093 2.066-1.117 2.121-0.402 0.879-0.617 1.613-0.64 2.199 0 0.106 0.132 0.707 0.398 1.801 0.188 0.851 0.188 1.519 0 2-0.105 0.238-0.359 0.598-0.758 1.078-0.429 0.535-0.695 0.895-0.801 1.082-0.082 0.105-0.175 0.32-0.281 0.641-0.082 0.32-0.172 0.531-0.281 0.636-0.238 0.297-0.625 0.551-1.16 0.762-0.719 0.293-1.16 0.492-1.317 0.602-0.402 0.238-1.043 0.703-1.921 1.398-0.774 0.613-1.415 1.055-1.918 1.32 0.105-0.32 0.144-0.761 0.117-1.32-0.614 0.719-1.067 1.172-1.36 1.359-0.586 0.348-1.093 0.227-1.519-0.359v1z" inkscape:connector-curvature="0"/>
      <path id="path106" style="fill-rule:evenodd;fill:#ad8d32" d="m24.297 45.023c-0.215-0.266-0.496-0.48-0.84-0.641-0.43-0.187-0.75-0.32-0.961-0.398l0.598 0.961 1.203 0.078z" inkscape:connector-curvature="0"/>
      <path id="path108" style="fill-rule:evenodd;fill:#e3bb44" d="m14.496 40.664c0.32 0.16 0.852 0.386 1.598 0.679 0.722 0.239 1.254 0.465 1.601 0.68 1.52 0.828 2.508 1.387 2.961 1.68l0.117-0.879c-0.293-0.613-0.812-1.613-1.558-3-0.16-0.348-0.332-1.106-0.52-2.281-0.187-0.985-0.425-1.707-0.718-2.161-0.293-0.453-0.895-0.707-1.801-0.757-1.016 0.05-1.735 0.093-2.16 0.117-0.243 0-0.602 0.066-1.082 0.203-0.477 0.133-0.84 0.199-1.079 0.199-0.453 0-1-0.254-1.64-0.762-0.719-0.531-1.238-0.839-1.559-0.918 0.051 1.254 0.973 2.825 2.758 4.719 0.801 0.746 1.828 1.574 3.082 2.481z" inkscape:connector-curvature="0"/>
      <path id="path110" style="fill-rule:evenodd;fill:#e3bb44" d="m22.734 39.382c-0.078 1.336 0.094 2.481 0.52 3.442l0.961 1.199c0.16-0.266 0.226-0.68 0.199-1.238-0.023-0.297-0.078-0.707-0.16-1.242-0.133-0.907-0.227-1.454-0.277-1.641-0.215-0.48-0.629-0.652-1.243-0.52z" inkscape:connector-curvature="0"/>
      <path id="path112" style="fill-rule:evenodd;fill:#e3bb44" d="m23.617 43.582 0.52 0.519 0.078-0.078-0.961-1.199c0.109 0.293 0.226 0.547 0.363 0.758z" inkscape:connector-curvature="0"/>
      <path id="path114" style="fill-rule:evenodd;fill:#e3bb44" d="m26.496 42.464c0.188 0.372 0.359 0.559 0.52 0.559 0.214 0.027 0.507-0.215 0.879-0.719 0.214-0.64 0.32-1.16 0.32-1.562 0.055-0.797 0.066-1.266 0.039-1.399-0.078-0.507-0.348-0.601-0.797-0.281-0.293 0.188-0.535 0.641-0.723 1.36-0.16 0.64-0.238 1.32-0.238 2.042z" inkscape:connector-curvature="0"/>
      <path id="path116" style="fill-rule:evenodd;fill:#e3bb44" d="m26.695 43.824 0.52-0.121 0.68-1.399c-0.372 0.504-0.665 0.746-0.879 0.719-0.161 0-0.332-0.187-0.52-0.559 0 0.586 0.066 1.04 0.199 1.36z" inkscape:connector-curvature="0"/>
      <path id="path118" style="fill-rule:evenodd;fill:#e3bb44" d="m14.414 22.984c0.641-0.562 1.254-1.402 1.84-2.52 0.723-1.308 1.254-2.175 1.601-2.601 0.426-0.531 1.067-0.918 1.918-1.16 1.149-0.321 1.844-0.547 2.082-0.68-0.933-0.531-1.48-0.867-1.64-1-0.481-0.371-0.801-0.851-0.961-1.441-0.211-0.797-0.387-1.305-0.52-1.52-0.238-0.48-0.625-0.867-1.16-1.16-1.465-0.746-3.414-0.918-5.84-0.52-0.851 0.137-1.492 0.309-1.918 0.52-0.425 0.242-0.867 0.684-1.32 1.32-0.266 0.375-0.707 0.813-1.32 1.321-0.668 0.586-1.121 1.015-1.36 1.281-0.375 0.453-0.773 1.027-1.199 1.719-0.429 0.828-0.762 1.441-1 1.839-0.187 0.293-0.523 0.735-1 1.321l0.078 1.558c0.106 1.684 0.293 3.043 0.559 4.082 0.32 1.309 0.883 2.707 1.68 4.2 0.082-1.094 0.457-2.094 1.121-3 0.215-0.293 0.359-0.442 0.441-0.442 0.32 0.028 0.504 0.043 0.559 0.043 0.375-0.055 1.082-0.094 2.121-0.121 0.984-0.16 1.918-0.519 2.801-1.078 0.613-0.375 1.425-1.027 2.437-1.961z" inkscape:connector-curvature="0"/>
      <path id="path120" style="fill-rule:evenodd;fill:#e3bb44" d="m25.176 19.703c0.64 0.691 1.16 1.426 1.558 2.199 0.508 1.066 0.614 1.922 0.321 2.562l0.8-0.242c0.801 0.133 1.36-0.574 1.68-2.121 0.266-1.277 0.305-2.371 0.121-3.277-0.242-1.067-1.336-1.68-3.281-1.84-0.746-0.082-2.176-0.055-4.281 0.078-0.028 0.348 0.402 0.817 1.281 1.402 1.148 0.77 1.746 1.188 1.801 1.239z" inkscape:connector-curvature="0"/>
      <path id="path122" style="fill-rule:evenodd;fill:#e3bb44" d="m2.617 10.101c0.746 0.27 1.332 0.535 1.758 0.801l0.121-0.277c0.238-0.27 0.574-0.496 1-0.68 0.266-0.109 0.68-0.254 1.238-0.441 1.387-0.508 2.762-1.227 4.121-2.161 0.481-0.32 1.133-0.812 1.961-1.48 0.454-0.293 1.012-0.574 1.68-0.84 0.371-0.16 0.961-0.387 1.758-0.68 0.695-0.265 1.68-0.492 2.961-0.679 1.387-0.16 2.375-0.336 2.961-0.52-0.321-0.109-0.719-0.176-1.199-0.203-0.536-0.023-0.934-0.066-1.204-0.117-0.476-0.11-1.226-0.11-2.238 0-1.414 0.16-2.16 0.238-2.238 0.238-1.203 0.055-2 0.121-2.402 0.199-0.614 0.133-1.278 0.442-2 0.922-0.372 0.239-0.879 0.481-1.52 0.719-0.801 0.293-1.305 0.492-1.52 0.602-0.933 0.453-2.48 1.531-4.64 3.238-0.774 0.668-0.973 1.121-0.598 1.359z" inkscape:connector-curvature="0"/>
      <path id="path124" style="fill-rule:evenodd;fill:#7d6524" d="m22.496 43.984-0.562-0.84c-0.024 0.133 0 0.332 0.082 0.598l0.48 0.242z" inkscape:connector-curvature="0"/>
      <path id="path126" style="fill-rule:evenodd;fill:#9c7f2d" d="m22.977 44.863-0.641-0.52 0.48 0.559 0.239 0.043-0.078-0.082z" inkscape:connector-curvature="0"/>
      <path id="path128" style="fill-rule:evenodd;fill:#7d6524" d="m22.496 43.984-0.48-0.242 0.238 0.48 0.801 0.723h0.039l-0.598-0.961z" inkscape:connector-curvature="0"/>
      <path id="path130" style="fill-rule:evenodd;fill:#7d6524" d="m24.695 43.101c-0.105 0.242-0.093 0.524 0.039 0.844 0.11-0.242 0.188-0.629 0.243-1.16-0.082 0-0.176 0.105-0.282 0.316z" inkscape:connector-curvature="0"/>
      <path id="path132" style="fill-rule:evenodd;fill:#7d6524" d="m25.254 44.023c0-0.801-0.09-1.215-0.277-1.238-0.055 0.531-0.137 0.918-0.243 1.16l0.321 0.598c0.105-0.239 0.133-0.493 0.082-0.758l0.117 0.238z" inkscape:connector-curvature="0"/>
      <path id="path134" style="fill-rule:evenodd;fill:#7d6524" d="m25.297 45.023-0.043-1-0.117-0.238c0.051 0.265 0.023 0.519-0.082 0.758l0.242 0.48z" inkscape:connector-curvature="0"/>
      <path id="path136" style="fill-rule:evenodd;fill:#9c7f2d" d="m1.375 5.582c0.746-0.024 1.652-0.278 2.719-0.758 1.015-0.402 2.066-1 3.16-1.801l-1.399 0.559c-2.347 0.961-3.839 1.629-4.48 2z" inkscape:connector-curvature="0"/>
      <path id="path138" style="fill-rule:evenodd;fill:#7d6524" d="m38.734 30.062c-0.32 0.32-0.558 1.094-0.718 2.32-0.188 1.36 0.078 1.961 0.8 1.801 0.907-2.054 1.625-4.226 2.161-6.519 0.425-1.867 0.652-3.36 0.679-4.481 0.051-1.601 0.934-4.304 2.641-8.121 1.867-4.105 2.867-6.519 3-7.238 0.265-1.442-0.094-2.535-1.082-3.281-0.852-0.641-2.121-0.961-3.801-0.961-0.852 0-2.812-0.532-5.879-1.598-3.199-1.121-5.918-1.75-8.16-1.883-0.984-0.051-2.574-0.078-4.758-0.078l1.758 0.281c1.094 0.211 2.852 0.371 5.281 0.481 0.453 0.023 0.895 0.144 1.321 0.359 0.503 0.293 0.906 0.531 1.199 0.719 0.531 0.293 1.375 0.641 2.519 1.039 0.211 0.082 0.758 0.387 1.641 0.922 0.664 0.426 1.226 0.664 1.68 0.719 0.507 0.078 1.32-0.055 2.441-0.399 0.344-0.055 1.117-0.082 2.316-0.082 0.778 0.027 1.348 0.266 1.723 0.719 0.266 0.348 0.492 0.949 0.68 1.801 0.133 0.613 0.078 1.215-0.16 1.8-0.082 0.211-0.309 0.493-0.68 0.84-0.32 0.348-0.52 0.614-0.602 0.801-0.05 0.133-0.066 0.344-0.039 0.641 0.055 0.371 0.078 0.613 0.078 0.718-0.078 0.907-0.371 1.973-0.878 3.2-1.067 2.773-1.918 4.828-2.559 6.16l-0.32 0.64c-0.11 0.211-0.161 0.399-0.161 0.559 0 0.109 0.04 0.242 0.122 0.402 0.105 0.184 0.16 0.305 0.16 0.36 0.133 0.719 0.172 1.652 0.117 2.797-0.078 1.336-0.918 2.855-2.52 4.562z" inkscape:connector-curvature="0"/>
      <path id="path140" style="fill-rule:evenodd;fill:#9c7f2d" d="m5.855 3.582 1.399-0.559 0.402-0.32c0.348-0.266 0.735-0.426 1.16-0.481l1.2-0.117c0.879-0.215 1.734-0.359 2.558-0.441l0.563-0.082c0.957-0.211 2.652-0.625 5.078-1.239l0.281-0.082c-4.082 0.293-7.176 0.762-9.281 1.403-1.68 0.504-3.199 1.105-4.559 1.8-0.722 0.344-1.949 1.024-3.679 2.04l-0.043 0.039 0.441 0.039c0.641-0.371 2.133-1.039 4.48-2z" inkscape:connector-curvature="0"/>
      <path id="path142" style="fill-rule:evenodd;fill:#7d6524" d="m31.695 41.984c-0.425 0.371-0.707 0.613-0.84 0.719l-1.32 1c-0.719 0.453-1.414 0.668-2.082 0.64l-0.039-0.32c-0.293 0.238-0.508 0.414-0.641 0.52-0.293 0.214-0.558 0.32-0.8 0.32-0.106 0.027-0.184 0.016-0.239-0.039-0.082-0.082-0.148-0.121-0.199-0.121-0.242 0-0.387-0.028-0.441-0.078-0.106-0.082-0.16-0.203-0.16-0.364-0.028-0.211-0.055-0.343-0.079-0.398l-0.402 0.398-0.16 0.243c-0.078-0.028-0.188-0.016-0.32 0.039-0.157 0.082-0.278 0.132-0.36 0.16-0.105 0.054-0.238 0.054-0.398 0-0.32-0.215-0.574-0.36-0.762-0.442 0.215 0.27 0.203 0.457-0.039 0.563 4.082 0.64 7.641-0.266 10.68-2.723v-0.039c-0.344 0.027-0.801 0.293-1.36 0.801 0.106-0.106 0.309-0.281 0.602-0.52 0.266-0.265 0.387-0.507 0.359-0.718-0.265-0.055-0.601 0.066-1 0.359z" inkscape:connector-curvature="0"/>
      <path id="path144" style="fill-rule:evenodd;fill:#f2cd5e" d="m18.137 3.984 0.519-0.121c0.078-0.027 0.559-0.082 1.438-0.16 0.586-0.082 0.988-0.281 1.203-0.598-0.723-0.348-1.641-0.551-2.762-0.601-1.012-0.028-1.961 0.066-2.84 0.281-1.332 0.344-1.707 0.746-1.121 1.199 0.242 0.188 0.801 0.238 1.68 0.16 0.48-0.027 1.109-0.082 1.883-0.16z" inkscape:connector-curvature="0"/>
      <path id="path146" style="fill-rule:evenodd;fill:#f2cd5e" d="m12.535 4.664 0.121-0.16v-0.641c-0.508 0.027-0.988 0.121-1.441 0.281-0.106 0.399 0.015 0.598 0.359 0.598 0.188 0.027 0.508 0 0.961-0.078z" inkscape:connector-curvature="0"/>
      <path id="path148" style="fill-rule:evenodd;fill:#cfa832" d="m25.055 8.062 0.281-0.48c-0.082-0.586-0.309-1.051-0.68-1.399-0.133-0.16-0.64-0.469-1.519-0.922-0.297-0.132-0.575-0.199-0.84-0.199-0.348 0.027-0.617 0.043-0.801 0.043-0.32 0-0.574-0.043-0.762-0.121l-0.039-0.16c-0.265-0.082-0.574-0.067-0.922 0.039-0.398 0.133-0.703 0.226-0.918 0.281l-1.242 0.199c-0.425 0.106-1.265 0.454-2.519 1.039-0.637 0.293-0.985 0.563-1.039 0.801 0.265 0.028 0.64-0.011 1.121-0.121 0.48-0.105 0.84-0.144 1.078-0.117l-0.039 0.039c2.426 0 3.879 0.012 4.359 0.039 0.508 0.082 0.789 0.133 0.84 0.16 0.883-0.051 1.629 0.016 2.242 0.199 0.344 0.11 0.813 0.336 1.399 0.68z" inkscape:connector-curvature="0"/>
      <path id="path150" style="fill-rule:evenodd;fill:#cfa832" d="m22.336 4.582v0.082c0.32 0 0.426-0.2 0.32-0.602-0.828-0.078-1.265 0.043-1.32 0.36 0.211 0.16 0.547 0.214 1 0.16z" inkscape:connector-curvature="0"/>
      <path id="path152" style="fill-rule:evenodd;fill:#7d6524" d="m22.215 44.785c0.133 0.051 0.308 0.078 0.519 0.078 0.188 0.027 0.321 0.055 0.403 0.082-0.055-0.215-0.254-0.457-0.602-0.723-0.078-0.16-0.199-0.504-0.359-1.039-0.16-0.426-0.336-0.761-0.52-1-0.265-0.293-0.867-0.719-1.801-1.281-0.558-0.293-1.214-0.438-1.96-0.438-0.454 0-0.735 0.012-0.84 0.04-0.133 0.05-0.2 0.144-0.2 0.281l0.122 0.359c0.023 0.078 0.05 0.211 0.078 0.399 0.082 0.214 0.402 0.414 0.961 0.601 0.238 0.078 0.492 0.211 0.757 0.399 0.161 0.105 0.387 0.281 0.684 0.519 0.344 0.242 0.703 0.613 1.078 1.121 0.293 0.426 0.535 0.668 0.719 0.719l0.082 0.043c0.398-0.215 0.691-0.27 0.879-0.16z" inkscape:connector-curvature="0"/>
      <path id="path154" style="fill-rule:evenodd;fill:#7d6524" d="m24.055 44.785 0.359 0.519h0.199c0.293 0 0.453-0.082 0.481-0.242 0-0.105-0.039-0.305-0.117-0.598-0.133-0.425-0.133-0.894 0-1.402 0.027-0.105 0.078-0.68 0.16-1.719 0-0.507 0.011-0.8 0.039-0.879 0.054-0.187 0.215-0.253 0.48-0.203 0.453 0 0.707 0.067 0.758 0.203 0.082 0.106 0.066 0.454-0.039 1.04l-0.602 2.757c-0.132 0.375-0.183 0.641-0.16 0.801 0.215-0.051 0.414-0.25 0.602-0.598l1.762-3.121c0.211-0.375 0.332-0.734 0.359-1.082 0-0.078 0.012-0.222 0.039-0.437s0.016-0.375-0.039-0.481c-0.109-0.265-0.52-0.386-1.242-0.359-0.504 0-1 0.055-1.481 0.16-0.265 0.028-0.465 0.051-0.597 0.078-0.188 0.082-0.348 0.2-0.481 0.36-0.027 0.054-0.16 0.429-0.402 1.121-0.106 0.375-0.16 0.933-0.16 1.679 0.004 1.067 0.027 1.868 0.082 2.403z" inkscape:connector-curvature="0"/>
      <path id="path156" style="fill-rule:evenodd;fill:#855f26" d="m21.375 45.625 0.199-0.321c0.106-0.187 0.266-0.347 0.481-0.48-0.028-0.774-0.133-1.281-0.321-1.52-0.371-0.429-0.824-0.867-1.359-1.32-0.348-0.293-0.828-0.602-1.441-0.922-0.399-0.238-1.024-0.414-1.879-0.519-0.985-0.133-1.493 0.054-1.52 0.562v0.918c0.027 0.375 0.32 0.762 0.879 1.16 0.828 0.481 1.84 0.856 3.043 1.121 0.613 0.184 1.25 0.625 1.918 1.321zm-0.398-1.442 0.437 0.762c-0.453-0.508-0.879-0.883-1.277-1.121-0.535-0.348-1.082-0.613-1.641-0.801l-1-0.359c-0.48-0.106-0.734-0.2-0.762-0.282-0.187-0.293-0.265-0.48-0.238-0.558 0.133-0.348 0.504-0.426 1.117-0.242 0.055 0.027 0.27 0.082 0.641 0.16 0.269 0.082 0.453 0.176 0.562 0.281 0.161 0.133 0.438 0.293 0.84 0.481 0.266 0.187 0.707 0.746 1.321 1.679z" inkscape:connector-curvature="0"/>
      <path id="path158" style="fill-rule:evenodd;fill:#694b1e" d="m20.695 44.984 0.039 0.039 0.321-0.48c-0.321-0.321-0.625-0.559-0.918-0.719-0.535-0.348-1.082-0.613-1.641-0.801l-1-0.359c-0.133-0.028-0.254-0.055-0.359-0.082-0.188-0.051-0.309-0.106-0.364-0.16-0.265 0.054-0.437 0.16-0.519 0.32 0.402 0.055 1.203 0.293 2.402 0.722l1.078 0.36c0.106 0.051 0.309 0.133 0.602 0.238 0.133 0.16 0.254 0.469 0.359 0.922z" inkscape:connector-curvature="0"/>
      <path id="path160" style="fill-rule:evenodd;fill:#694b1e" d="m21.297 44.742 0.199 0.281 0.078 0.238c0.11-0.16 0.266-0.304 0.481-0.437-0.028-0.774-0.133-1.281-0.321-1.52-0.371-0.429-0.824-0.867-1.359-1.32-0.348-0.293-0.828-0.602-1.441-0.922-0.399-0.238-1.024-0.414-1.879-0.519-0.985-0.133-1.493 0.054-1.52 0.558v0.922c0 0.133 0.067 0.293 0.199 0.481 0.055-0.586 0.149-0.934 0.282-1.04 0.238-0.214 0.535-0.296 0.879-0.242 0.242 0 0.601 0.055 1.082 0.16 0.664 0.133 1.093 0.266 1.277 0.403 0.348 0.316 0.894 0.773 1.641 1.359 0.425 0.32 0.64 0.653 0.64 1 0 0.32-0.121 0.438-0.359 0.36l0.121 0.238z" inkscape:connector-curvature="0"/>
      <path id="path162" style="fill-rule:evenodd;fill:#694b1e" d="m21.414 44.945-0.359-0.402-0.321 0.48c0.293 0.266 0.508 0.465 0.641 0.602l0.199-0.321v-0.043l-0.078-0.238-0.199-0.281 0.117 0.203z" inkscape:connector-curvature="0"/>
      <path id="path164" style="fill-rule:evenodd;fill:#855f26" d="m24.375 45.863c0.152-0.301 0.152-1.074 0-2.32-0.051-0.961-0.039-1.664 0.039-2.121 0.055-0.317 0.148-0.52 0.281-0.598 0.082-0.055 0.293-0.094 0.641-0.121 0.668-0.078 1.055 0.015 1.16 0.281 0.106 0.211 0.051 0.813-0.16 1.801-0.32 1.304-0.879 2.254-1.68 2.84-0.113 0.082-0.207 0.16-0.281 0.238zm0.238 1.082c0.59-0.481 1.137-1.055 1.641-1.723 0.402-0.531 0.816-1.48 1.242-2.84 0.133-0.371 0.199-1.066 0.199-2.078 0-0.242-0.082-0.429-0.238-0.562-0.109-0.078-0.309-0.184-0.602-0.32-0.32-0.106-0.546-0.161-0.679-0.161-1.653-0.183-2.614 0.457-2.879 1.922-0.16 0.989-0.016 2.16 0.437 3.52 0.243 0.668 0.36 1.094 0.36 1.281 0.058 0.02 0.113 0.02 0.16 0-0.121 0.137-0.176 0.254-0.16 0.359 0 0.133 0.054 0.254 0.16 0.36 0.137 0.133 0.269 0.199 0.402 0.199l-0.043 0.043z" inkscape:connector-curvature="0"/>
      <path id="path166" style="fill-rule:evenodd;fill:#694b1e" d="m24.336 45.863-0.121 0.121c-0.106 0.105-0.149 0.227-0.121 0.359 0 0.133 0.054 0.254 0.16 0.36 0.137 0.133 0.269 0.199 0.402 0.199l-0.039 0.043c0.586-0.481 1.133-1.055 1.637-1.723 0.402-0.531 0.816-1.48 1.242-2.84 0.133-0.371 0.199-1.066 0.199-2.078 0-0.242-0.078-0.429-0.238-0.562-0.109-0.078-0.309-0.184-0.602-0.32-0.32-0.106-0.546-0.161-0.679-0.161-0.774-0.078-1.387 0.016-1.84 0.282l1 0.039c0.852 0.082 1.398 0.269 1.641 0.562 0.132 0.133 0.199 0.492 0.199 1.078 0.051 0.375-0.016 0.856-0.199 1.442-0.348 0.531-0.575 0.945-0.684 1.238l-0.559 1.281c-0.265 0.453-0.613 0.68-1.039 0.68h-0.359z" inkscape:connector-curvature="0"/>
      <path id="path168" style="fill-rule:evenodd;fill:#694b1e" d="m24.176 44.945c0 0.426 0.078 0.637 0.238 0.637 0.082-0.426 0.066-1.106-0.039-2.039-0.051-0.961-0.039-1.664 0.039-2.121 0.055-0.293 0.137-0.493 0.242-0.598 0.102-0.051 0.285-0.094 0.559-0.121-0.266-0.078-0.613-0.055-1.039 0.082-0.188 0.051-0.309 0.133-0.36 0.238-0.027 0.078-0.043 0.238-0.043 0.481 0 1.039 0.055 1.8 0.161 2.281 0.16 0.476 0.242 0.863 0.242 1.16z" inkscape:connector-curvature="0"/>
      <path id="path170" style="fill-rule:evenodd;fill:#a67d41" d="m23.414 41.984c0-0.32-0.039-0.52-0.117-0.602-0.109 0.907 0.039 2.016 0.437 3.321l0.161 0.398-0.079-0.597c0-0.133-0.043-0.309-0.121-0.52-0.027-0.16-0.027-0.387 0-0.68-0.187-0.746-0.281-1.187-0.281-1.32z" inkscape:connector-curvature="0"/>
      <path id="path172" style="fill-rule:evenodd;fill:#a67d41" d="m26.535 41.625c-0.105 0.613-0.172 1-0.199 1.16-0.133 0.531-0.281 0.945-0.441 1.238 0.16-0.16 0.281-0.332 0.359-0.519l0.48-1.442c0-0.265-0.066-0.414-0.199-0.437z" inkscape:connector-curvature="0"/>
      <path id="path174" style="fill-rule:evenodd;fill:#ad8d32" d="m16.176 28.664c-1.016-1.067-1.653-2.762-1.922-5.082-0.106-0.664-0.16-1.371-0.16-2.118 1.336 2.907 2.84 5.747 4.523 8.52-0.91-0.187-1.722-0.629-2.441-1.32zm6.199 0.437-0.121 0.121c-0.426 0.348-0.891 0.575-1.399 0.68-2.453-3.918-4.519-7.867-6.199-11.84l0.278-0.519c0.242-0.399 0.535-0.735 0.882-1 1.707 4.214 3.891 8.402 6.559 12.558zm-2.238 4 0.437-0.039 1.36 2.039h2.441l-1.641-2.359c0.563-0.16 1.094-0.387 1.602-0.68l2.16 2.961 2.68-0.238c-1.121-1.387-2.149-2.774-3.082-4.16 0.64-0.774 1.133-1.735 1.48-2.883l-3.957-0.879v0.039c-2.269-3.574-4.226-7.348-5.883-11.32 0.243-0.078 0.52-0.118 0.84-0.118 1.149-0.054 2.188 0.333 3.121 1.161 0.879 0.797 1.52 2.039 1.922 3.718l4.199-1.558c-0.668-2.696-1.773-4.684-3.32-5.961-1.68-1.332-3.746-1.945-6.199-1.84-0.723 0.027-1.457 0.133-2.203 0.32-0.453-1.336-0.891-2.761-1.321-4.281-0.664 0.188-1.343 0.348-2.039 0.481 0.454 1.625 0.934 3.171 1.442 4.64-0.426 0.211-0.895 0.559-1.403 1.039-0.531-1.519-1.066-3.304-1.597-5.359l-1.403 0.199-0.359 0.281c0.668 2.481 1.336 4.653 2 6.52h-0.039c-1.465 2.238-1.895 5.094-1.281 8.558 0.562 3.254 1.761 5.707 3.601 7.36 1.735 1.574 3.879 2.359 6.442 2.359z" inkscape:connector-curvature="0"/>
      <g id="g176">
        <g id="g178">
          <g id="g184">
            <path id="path192" style="fill-rule:evenodd;fill:url(#linearGradient186)" d="m15.855 29.144c-0.988-0.988-1.64-2.668-1.96-5.043l-0.161-2.156c1.282 2.773 2.789 5.613 4.52 8.519-0.906-0.214-1.703-0.656-2.399-1.32zm4.36 4.399 1.402 2 2.438 0.039c-0.719-0.985-1.282-1.77-1.68-2.36 0.535-0.16 1.082-0.386 1.641-0.679l2.121 2.961 2.679-0.243c-1.121-1.382-2.148-2.773-3.082-4.16 0.641-0.773 1.133-1.73 1.481-2.879l-3.961-0.879v0.039c-2.293-3.625-4.25-7.386-5.879-11.281l0.84-0.117c1.148-0.055 2.187 0.332 3.121 1.16 0.852 0.801 1.492 2.039 1.918 3.719l4.203-1.559c-0.641-2.64-1.762-4.613-3.363-5.922-1.625-1.359-3.68-1.972-6.16-1.839-0.746 0-1.477 0.109-2.2 0.32-0.531-1.574-0.972-3-1.32-4.281l-2 0.48c0.348 1.36 0.816 2.895 1.402 4.602-0.64 0.425-1.093 0.773-1.359 1.039-0.695-2.082-1.227-3.852-1.602-5.321l-1.398 0.2-0.363 0.281c0.48 1.789 1.136 3.949 1.961 6.48-1.465 2.266-1.895 5.11-1.282 8.52 0.563 3.254 1.762 5.707 3.602 7.359 1.734 1.575 3.867 2.364 6.398 2.364l0.442-0.043zm1.68-3.84c-0.426 0.347-0.895 0.574-1.399 0.679-2.508-3.972-4.574-7.906-6.199-11.8l0.277-0.52c0.188-0.316 0.481-0.652 0.883-1 1.785 4.32 3.973 8.496 6.559 12.52l-0.121 0.121z" inkscape:connector-curvature="0"/>
          </g>
        </g>
      </g>
      <path id="path194" style="fill-rule:evenodd;fill:#327d00" d="m15.617 29.824c0.692 0.719 1.492 1.16 2.399 1.32l-0.559-0.922c-0.59-0.238-1.121-0.597-1.602-1.078-0.988-0.988-1.64-2.668-1.96-5.043l-0.079-0.758-0.32-0.679c0 0.746 0.051 1.453 0.16 2.117 0.321 2.43 0.973 4.109 1.961 5.043z" inkscape:connector-curvature="0"/>
      <path id="path196" style="fill-rule:evenodd;fill:#327d00" d="m10.016 17.582c0.187-0.504 0.453-1.012 0.8-1.52v-0.039l-0.043-0.16c-0.265 0.453-0.519 1.027-0.757 1.719z" inkscape:connector-curvature="0"/>
      <path id="path198" style="fill-rule:evenodd;fill:#327d00" d="m26.957 28.945 0.258-0.723-3.961-0.879v0.039c-2.238-3.546-4.106-7.105-5.598-10.679l-0.519 0.082c1.547 3.812 3.504 7.586 5.879 11.316v-0.039l3.941 0.883z" inkscape:connector-curvature="0"/>
      <path id="path200" style="fill-rule:evenodd;fill:#327d00" d="m14.375 18.703-0.32 0.558c1.679 3.973 3.746 7.922 6.199 11.84 0.586-0.183 1.055-0.41 1.402-0.679l0.117-0.118-0.199-0.359c-0.426 0.238-0.785 0.383-1.078 0.437-2.426-3.867-4.469-7.757-6.121-11.679z" inkscape:connector-curvature="0"/>
      <path id="path202" style="fill-rule:evenodd;fill:#327d00" d="m28.055 35.343 0.761-0.082c-1.148-1.464-2.132-2.785-2.961-3.957l-0.359 0.52 2.559 3.519z" inkscape:connector-curvature="0"/>
      <path id="path204" style="fill-rule:evenodd;fill:#327d00" d="m23.855 14.062c1.442 1.199 2.508 3 3.2 5.402l0.402-0.16c-0.641-2.64-1.762-4.613-3.363-5.922-1.625-1.359-3.68-1.972-6.16-1.839-0.746 0-1.477 0.109-2.2 0.32-0.531-1.574-0.972-3-1.32-4.281l-2 0.48 0.16 0.602 1.602-0.403c0.426 1.52 0.867 2.95 1.32 4.282 0.746-0.188 1.481-0.293 2.199-0.321 2.426-0.133 4.481 0.481 6.16 1.84z" inkscape:connector-curvature="0"/>
      <path id="path206" style="fill-rule:evenodd;fill:#327d00" d="m13.414 12.945c-0.531 0.398-0.852 0.652-0.957 0.758-0.695-2.082-1.227-3.852-1.602-5.321l-1.398 0.2-0.363 0.281 0.121 0.402 1.359-0.203c0.321 1.203 0.856 2.973 1.602 5.32 0.586-0.48 1.051-0.812 1.398-1l-0.16-0.437z" inkscape:connector-curvature="0"/>
      <path id="path208" style="fill-rule:evenodd;fill:#327d00" d="m22.137 33.902 1.16 1.68h0.758c-0.586-0.77-1.028-1.399-1.321-1.879l-0.597 0.199z" inkscape:connector-curvature="0"/>
      <path id="path210" style="fill-rule:evenodd;fill:#65b821" d="m21.977 29.504 0.48-0.321c-2.59-4.027-4.789-8.215-6.602-12.558l-0.519 0.519 0.121-0.082c1.703 4.188 3.879 8.332 6.52 12.442z" inkscape:connector-curvature="0"/>
      <path id="path212" style="fill-rule:evenodd;fill:#65b821" d="m17.855 29.785 0.84 0.238c-1.734-2.855-3.238-5.68-4.519-8.48l0.078 1.441c1.121 2.344 2.32 4.613 3.601 6.801z" inkscape:connector-curvature="0"/>
      <path id="path214" style="fill-rule:evenodd;fill:#65b821" d="m21.734 16.703c-0.906-0.824-1.945-1.215-3.117-1.16l-0.844 0.121 0.161 0.359 0.281-0.039c1.148-0.055 2.187 0.332 3.121 1.16 0.852 0.797 1.492 2.039 1.918 3.719l4.203-1.563-0.082-0.238-3.719 1.36c-0.402-1.68-1.039-2.918-1.922-3.719z" inkscape:connector-curvature="0"/>
      <path id="path216" style="fill-rule:evenodd;fill:#65b821" d="m19.773 33.582 0.442-0.039 1.402 2 2.438 0.039-0.321-0.438-1.718-0.043-1.36-2-0.48 0.043c-2.535 0-4.668-0.789-6.403-2.359-1.839-1.602-3.039-4.055-3.597-7.363-0.614-3.411-0.188-6.25 1.281-8.52h0.039c-0.723-1.945-1.375-4.066-1.961-6.359l-0.078 0.043-0.363 0.277c0.48 1.789 1.136 3.949 1.961 6.48-1.465 2.27-1.895 5.11-1.282 8.52 0.563 3.254 1.762 5.707 3.602 7.363 1.734 1.571 3.867 2.356 6.398 2.356z" inkscape:connector-curvature="0"/>
      <path id="path218" style="fill-rule:evenodd;fill:#65b821" d="m12.895 7.945-0.481 0.117c0.426 1.629 0.883 3.121 1.359 4.481l0.442-0.282c-0.481-1.437-0.918-2.879-1.32-4.316z" inkscape:connector-curvature="0"/>
      <path id="path220" style="fill-rule:evenodd;fill:#65b821" d="m22.934 33.023 1.082-0.48 2.121 2.961 2.679-0.243-0.281-0.359-2 0.16-2.121-2.961c-0.586 0.321-1.133 0.547-1.641 0.684l0.161 0.238z" inkscape:connector-curvature="0"/>
    </g>
  </g>
<metadata><rdf:RDF><cc:Work><dc:format>image/svg+xml</dc:format><dc:type rdf:resource="http://purl.org/dc/dcmitype/StillImage"/><cc:license rdf:resource="http://creativecommons.org/licenses/publicdomain/"/><dc:publisher><cc:Agent rdf:about="http://openclipart.org/"><dc:title>Openclipart</dc:title></cc:Agent></dc:publisher></cc:Work><cc:License rdf:about="http://creativecommons.org/licenses/publicdomain/"><cc:permits rdf:resource="http://creativecommons.org/ns#Reproduction"/><cc:permits rdf:resource="http://creativecommons.org/ns#Distribution"/><cc:permits rdf:resource="http://creativecommons.org/ns#DerivativeWorks"/></cc:License></rdf:RDF></metadata></svg>
